name Walk9.mot
datacolumns 19
datarows 10
range 1.06500000 1.11000000
endheader

                time	   L_ground_force_vx	   L_ground_force_vy	   L_ground_force_vz	   L_ground_force_px	   L_ground_force_py	   L_ground_force_pz	   R_ground_force_vx	   R_ground_force_vy	   R_ground_force_vz	   R_ground_force_px	   R_ground_force_py	   R_ground_force_pz	   L_ground_torque_x	   L_ground_torque_y	   L_ground_torque_z	   R_ground_torque_x	   R_ground_torque_y	   R_ground_torque_z	
          1.06500000	        -10.24503868	         79.75921701	         -6.25233128	         -0.07631972	          0.00000000	         -0.00668796	         -0.00000000	          0.00000000	         -0.00000000	          0.00000000	          0.00000000	          0.00000000	          0.00000000	          0.14293976	          0.00000000	          0.00000000	          0.00000000	          0.00000000	
          1.07000000	        -14.67896556	        110.09716045	         -8.09670920	         -0.16800615	          0.00000000	         -0.01674023	         -0.00000000	          0.00000000	         -0.00000000	          0.00000000	          0.00000000	          0.00000000	          0.00000000	          0.17869969	          0.00000000	          0.00000000	          0.00000000	          0.00000000	
          1.07500000	        -19.16821136	        142.45082720	         -9.88608931	         -0.24893429	          0.00000000	         -0.02573886	         -0.00000000	          0.00000000	         -0.00000000	         -0.00000000	          0.00000000	         -0.00000000	          0.00000000	          0.21634315	          0.00000000	          0.00000000	          0.00000000	          0.00000000	
          1.08000000	        -23.53811288	        175.04545417	        -11.41168819	         -0.31634831	          0.00000000	         -0.03343100	         -0.00000000	         -0.00000000	         -0.00000000	         -0.00000000	          0.00000000	         -0.00000000	          0.00000000	          0.25273556	          0.00000000	          0.00000000	          0.00000000	          0.00000000	
          1.08500000	        -27.76514109	        206.47869786	        -12.42660500	         -0.36953830	          0.00000000	         -0.03976721	         -0.00000000	         -0.00000000	         -0.00000000	         -0.00000000	          0.00000000	         -0.00000000	          0.00000000	          0.28535426	          0.00000000	          0.00000000	          0.00000000	          0.00000000	
          1.09000000	        -31.93573803	        236.01551410	        -12.70949883	         -0.40916592	          0.00000000	         -0.04482468	         -0.00000000	         -0.00000001	         -0.00000000	         -0.00000000	          0.00000000	         -0.00000000	          0.00000000	          0.31251796	          0.00000000	          0.00000000	          0.00000000	          0.00000000	
          1.09500000	        -36.15144587	        263.33648539	        -12.12926061	         -0.43672683	          0.00000000	         -0.04875229	         -0.00000000	         -0.00000002	         -0.00000000	         -0.00000000	          0.00000000	         -0.00000000	          0.00000000	          0.33272323	          0.00000000	          0.00000000	          0.00000000	          0.00000000	
          1.10000000	        -40.45559016	        288.34885766	        -10.67412987	         -0.45414108	          0.00000000	         -0.05172563	         -0.00000000	         -0.00000002	         -0.00000000	         -0.00000000	          0.00000000	         -0.00000000	          0.00000000	          0.34468680	          0.00000000	          0.00000000	          0.00000000	          0.00000000	
          1.10500000	        -44.81283465	        311.22690164	         -8.45366492	         -0.46344818	          0.00000000	         -0.05392251	          0.00000000	         -0.00000003	         -0.00000000	         -0.00000000	          0.00000000	         -0.00000000	          0.00000000	          0.34869775	          0.00000000	          0.00000000	          0.00000000	          0.00000000	
          1.11000000	        -49.14650533	        332.44486111	         -5.65432587	         -0.46659994	          0.00000000	         -0.05551175	          0.00000000	         -0.00000004	         -0.00000000	         -0.00000000	          0.00000000	         -0.00000000	          0.00000000	          0.34762291	          0.00000000	          0.00000000	          0.00000000	          0.00000000	
